<svg xmlns="http://www.w3.org/2000/svg" xmlns:xlink="http://www.w3.org/1999/xlink" viewBox="0 0 12.07 11.52"><defs><style>.cls-1{isolation:isolate;}.cls-2{fill:url(#radial-gradient);}.cls-3{mix-blend-mode:multiply;opacity:0.5;fill:url(#radial-gradient-2);}</style><radialGradient id="radial-gradient" cx="2.05" cy="11.66" r="12.62" gradientUnits="userSpaceOnUse"><stop offset="0.35" stop-color="#ffc200"/><stop offset="0.91" stop-color="#ffbd07"/><stop offset="0.72" stop-color="#ffaf19"/><stop offset="0.98" stop-color="#ff9737"/><stop offset="1" stop-color="#ff953a"/></radialGradient><radialGradient id="radial-gradient-2" cx="1.09" cy="14.79" r="18.25" xlink:href="#radial-gradient"/></defs><g class="cls-1"><g id="Ebene_2" data-name="Ebene 2"><g id="Layer_1" data-name="Layer 1"><path class="cls-2" d="M9.83,11.09c.06.36-.17.53-.5.36L6.61,10.08a1.52,1.52,0,0,0-1.2,0L2.67,11.42c-.32.17-.55,0-.49-.36l.46-3a1.5,1.5,0,0,0-.36-1.13L.15,4.72c-.26-.27-.17-.53.19-.59l3-.49a1.51,1.51,0,0,0,1-.7L5.74.24c.17-.32.45-.32.62,0L7.76,3a1.49,1.49,0,0,0,1,.7l3,.52c.36.06.45.33.19.59L9.77,6.94A1.47,1.47,0,0,0,9.4,8.07Z"/><path class="cls-3" d="M6.05.15c.06,0,.12.06.18.16L7.62,3a1.68,1.68,0,0,0,1.08.78l3,.52c.12,0,.2.06.21.12s0,.13-.1.21L9.66,6.83a1.66,1.66,0,0,0-.41,1.26l.43,3a.28.28,0,0,1,0,.23.12.12,0,0,1-.08,0,.41.41,0,0,1-.17,0L6.67,10A1.54,1.54,0,0,0,6,9.8a1.45,1.45,0,0,0-.65.14L2.61,11.29a.41.41,0,0,1-.17.05c-.06,0-.08,0-.08,0a.25.25,0,0,1,0-.22l.46-3A1.67,1.67,0,0,0,2.38,6.8L.25,4.61a.27.27,0,0,1-.1-.21c0-.06.1-.1.21-.12l3-.49A1.64,1.64,0,0,0,4.45,3L5.88.31c0-.1.12-.16.17-.16m0-.15c-.11,0-.22.08-.31.24L4.32,2.94a1.51,1.51,0,0,1-1,.7l-3,.49c-.36.06-.45.32-.19.59L2.28,6.91A1.5,1.5,0,0,1,2.64,8l-.46,3c0,.27.07.43.26.43a.43.43,0,0,0,.23-.07l2.74-1.35A1.38,1.38,0,0,1,6,10a1.48,1.48,0,0,1,.61.13l2.72,1.37a.49.49,0,0,0,.24.07c.19,0,.3-.16.26-.43l-.43-3a1.47,1.47,0,0,1,.37-1.13l2.15-2.17c.26-.26.17-.53-.19-.59l-3-.52a1.49,1.49,0,0,1-1-.7L6.36.25A.37.37,0,0,0,6.05,0Z"/></g></g></g></svg>